<svg id="visual" xmlns="http://www.w3.org/2000/svg" xmlns:xlink="http://www.w3.org/1999/xlink" version="1.1" viewBox="0 0 900 192.3"><path d="M0 152L21.5 156.3C43 160.7 86 169.3 128.8 162.2C171.7 155 214.3 132 257.2 127.3C300 122.7 343 136.3 385.8 131.7C428.7 127 471.3 104 514.2 104.8C557 105.7 600 130.3 642.8 152.8C685.7 175.3 728.3 195.7 771.2 191.8C814 188 857 160 878.5 146L900 132L900 0L878.5 0C857 0 814 0 771.2 0C728.3 0 685.7 0 642.8 0C600 0 557 0 514.2 0C471.3 0 428.7 0 385.8 0C343 0 300 0 257.2 0C214.3 0 171.7 0 128.8 0C86 0 43 0 21.5 0L0 0Z" fill="#f0ece4" stroke-linecap="round" stroke-linejoin="miter"></path></svg>