<svg id="visual" xmlns="http://www.w3.org/2000/svg" xmlns:xlink="http://www.w3.org/1999/xlink" version="1.1" viewBox="0 388 900 213"><path d="M0 388L21.5 391.7C43 395.3 86 402.7 128.8 416.7C171.7 430.7 214.3 451.3 257.2 451.7C300 452 343 432 385.8 437.3C428.7 442.7 471.3 473.3 514.2 483.2C557 493 600 482 642.8 470.2C685.7 458.3 728.3 445.7 771.2 451.3C814 457 857 481 878.5 493L900 505L900 601L878.5 601C857 601 814 601 771.2 601C728.3 601 685.7 601 642.8 601C600 601 557 601 514.2 601C471.3 601 428.7 601 385.8 601C343 601 300 601 257.2 601C214.3 601 171.7 601 128.8 601C86 601 43 601 21.5 601L0 601Z" fill="#f0ece4" stroke-linecap="round" stroke-linejoin="miter"></path></svg>