<svg version="1.0" xmlns="http://www.w3.org/2000/svg" preserveAspectRatio="xMidYMid meet" viewBox="10.05 102 277.22 90.85"><metadata>Created by potrace 1.10, written by Peter Selinger 2001-2011</metadata><g transform="translate(0.000000,300.000000) scale(0.100000,-0.100000)" fill="#000000" stroke="none"><path d="M1030 1955 c-5 -14 -13 -38 -16 -53 -7 -27 -145 -262 -154 -262 -5 0 -39 76 -59 133 -20 52 -29 26 -32 -90 -4 -105 -7 -124 -33 -176 -90 -183 -356 -210 -525 -52 -131 123 -117 283 33 360 74 37 175 46 227 20 43 -22 96 -72 115 -107 20 -38 36 -36 22 3 -20 56 -86 115 -152 134 -78 23 -143 15 -226 -27 -88 -45 -123 -95 -128 -183 -4 -55 0 -73 22 -119 33 -67 109 -139 184 -174 47 -22 74 -27 154 -30 86 -3 103 -1 150 20 119 55 167 132 176 279 l5 90 25 -56 25 -56 -21 -45 c-32 -65 -38 -118 -18 -149 21 -32 40 -32 71 0 28 27 33 76 14 147 -11 42 -10 45 42 130 29 49 54 86 56 85 2 -2 -2 -41 -8 -87 -13 -97 -7 -242 12 -283 15 -32 52 -45 76 -26 9 8 25 34 36 59 13 28 22 39 25 30 17 -54 69 -65 101 -22 16 20 20 23 21 10 0 -10 11 -25 25 -34 36 -24 90 -12 132 28 29 28 33 30 33 12 0 -29 34 -58 61 -51 14 4 31 -1 47 -14 39 -30 86 -25 131 16 26 24 44 33 56 29 15 -6 16 -3 11 24 -4 17 -2 49 4 72 34 126 -111 164 -167 45 -13 -27 -14 -18 -9 92 5 114 -1 149 -22 128 -4 -3 -10 -76 -13 -160 -5 -119 -10 -160 -23 -180 -21 -32 -34 -32 -47 3 -8 20 -6 47 7 112 27 127 18 249 -15 215 -10 -11 -31 -158 -31 -219 0 -39 0 -40 -16 -18 -33 47 -118 16 -131 -49 -9 -48 -23 -33 -23 25 0 64 -7 86 -26 86 -10 0 -14 -15 -14 -60 0 -103 -37 -144 -66 -73 -11 26 -14 52 -9 93 6 48 4 58 -10 63 -19 8 -23 -1 -27 -79 -4 -67 -43 -157 -70 -162 -54 -10 -44 354 14 502 19 49 18 76 -2 76 -6 0 -15 -11 -20 -25z m681 -335 c14 -8 19 -21 19 -50 0 -43 -5 -47 -34 -25 -11 8 -38 15 -59 15 -39 0 -39 0 -25 23 14 21 53 47 71 47 5 0 17 -5 28 -10z m-841 -121 c0 -33 -5 -51 -20 -64 -18 -16 -20 -16 -26 -1 -7 19 2 77 18 112 15 33 28 13 28 -47z m514 55 c9 -4 16 -18 16 -34 0 -34 -43 -72 -74 -68 -30 4 -24 56 9 86 29 25 28 24 49 16z m306 -42 l22 -18 -27 -32 c-35 -42 -80 -65 -111 -58 -30 8 -48 40 -35 63 8 15 11 12 18 -17 15 -56 33 -49 33 13 0 29 3 57 7 60 13 14 71 7 93 -11z"></path><path d="M1960 1892 c0 -21 29 -56 73 -87 46 -33 53 -91 23 -178 -15 -44 -22 -83 -19 -100 7 -36 -42 -94 -64 -76 -19 16 -16 70 7 129 26 67 26 72 -15 128 -36 50 -69 72 -110 72 -59 0 -26 -55 51 -85 37 -14 44 -21 44 -44 0 -50 -31 -119 -66 -151 -37 -32 -62 -38 -82 -18 -23 23 -13 46 23 58 40 13 58 39 53 78 -10 83 -118 -15 -118 -107 0 -33 39 -71 72 -71 22 0 78 30 78 42 0 4 5 8 10 8 6 0 10 -9 10 -19 0 -19 43 -61 62 -61 5 0 22 13 38 28 22 22 32 26 48 19 31 -14 67 -1 81 29 9 22 14 24 26 14 13 -11 8 -21 -40 -71 -96 -100 -132 -225 -88 -300 43 -72 146 -77 216 -11 42 40 58 110 60 269 l2 138 40 20 c61 31 203 28 269 -4 105 -52 181 -167 193 -295 6 -69 14 -84 31 -63 7 9 6 33 -4 82 -45 219 -199 348 -396 332 -43 -4 -83 -14 -104 -26 l-34 -20 0 64 c0 35 -3 70 -6 79 -12 31 -24 15 -25 -31 0 -57 -27 -131 -51 -147 -33 -20 -53 4 -53 64 0 72 -19 74 -34 3 -17 -75 -36 -105 -64 -101 -15 2 -21 9 -19 23 9 68 25 143 37 173 8 19 15 43 15 54 0 23 -109 146 -146 166 -21 11 -24 11 -24 -6z m-34 -163 l19 -21 -39 16 c-51 21 -55 26 -24 26 14 0 33 -10 44 -21z m-72 -124 c-7 -16 -44 -41 -44 -29 0 11 32 44 41 44 5 0 6 -7 3 -15z m454 -232 c-5 -173 -22 -229 -79 -259 -88 -45 -169 0 -169 94 0 90 87 220 175 261 25 12 48 28 51 36 4 8 11 15 16 15 7 0 9 -53 6 -147z"></path><path d="M1015 1309 c-4 -5 0 -18 9 -28 20 -22 21 -38 1 -21 -11 9 -15 9 -15 1 0 -18 31 -26 41 -10 5 8 3 20 -7 30 -16 18 -19 33 -4 24 6 -3 10 -1 10 4 0 14 -27 14 -35 0z"></path><path d="M1168 1280 c5 -49 22 -53 22 -6 0 19 6 37 13 39 6 3 1 6 -13 6 -24 1 -25 -2 -22 -39z"></path><path d="M1310 1285 c0 -39 21 -55 45 -35 17 14 21 70 5 70 -5 0 -10 -16 -10 -35 0 -19 -4 -35 -9 -35 -13 0 -23 34 -15 54 3 9 1 16 -5 16 -6 0 -11 -16 -11 -35z"></path><path d="M1480 1280 c0 -39 2 -41 26 -38 15 2 32 11 38 21 15 24 -3 51 -38 55 -24 3 -26 1 -26 -38z m45 0 c0 -16 -6 -26 -17 -28 -14 -3 -18 3 -18 28 0 25 4 31 18 28 11 -2 17 -12 17 -28z"></path><path d="M1650 1280 c0 -22 5 -40 10 -40 6 0 10 18 10 40 0 22 -4 40 -10 40 -5 0 -10 -18 -10 -40z"></path><path d="M1790 1305 c-26 -32 13 -81 48 -59 34 22 22 74 -18 74 -10 0 -23 -7 -30 -15z m50 -11 c11 -12 10 -18 -3 -32 -16 -15 -18 -15 -34 0 -13 14 -14 20 -3 32 7 9 16 16 20 16 4 0 13 -7 20 -16z"></path></g></svg>